<?xml version="1.0" encoding="utf-8"?>
<svg viewBox="236.5313 28.3543 791.2942 1305.3604" xmlns="http://www.w3.org/2000/svg">
  <defs>
    <radialGradient gradientUnits="userSpaceOnUse" cx="6842.667" cy="6950.807" r="2351.333" id="gradient-0">
      <stop offset="0" style="stop-color: #bada55"/>
      <stop offset="1" style="stop-color: #758d29"/>
    </radialGradient>
    <radialGradient gradientUnits="userSpaceOnUse" cx="6468.67" cy="4735.35" r="198.67" id="gradient-1">
      <stop offset="0" style="stop-color: #bada55"/>
      <stop offset="1" style="stop-color: #758d29"/>
    </radialGradient>
    <radialGradient gradientUnits="userSpaceOnUse" cx="5662.469" cy="3083.999" r="361.067" id="gradient-2">
      <stop offset="0" style="stop-color: #bada55"/>
      <stop offset="1" style="stop-color: #758d29"/>
    </radialGradient>
  </defs>
  <g transform="matrix(0.16826501488685608, 0, 0, -0.16826501488685608, -519.2031860351562, 1788.406494140625)" fill="#000000" stroke="none" style="">
    <path d="M8660 10436 c0 -13 -7 -29 -15 -36 -8 -7 -15 -17 -15 -22 0 -11 -23 -67 -46 -111 -8 -16 -14 -37 -14 -47 0 -9 -7 -23 -15 -30 -8 -7 -15 -22 -15 -34 0 -12 -7 -31 -15 -42 -8 -10 -15 -27 -15 -36 0 -10 -6 -32 -14 -50 -21 -51 -37 -99 -46 -138 -4 -19 -13 -48 -18 -65 -12 -36 -35 -117 -57 -205 -9 -36 -22 -86 -30 -111 -8 -26 -15 -57 -15 -69 0 -12 -6 -43 -14 -69 -14 -43 -28 -95 -56 -201 -6 -25 -15 -67 -19 -95 -9 -57 -28 -136 -43 -180 -6 -16 -14 -55 -19 -86 -4 -31 -13 -68 -19 -83 -5 -15 -10 -42 -10 -59 0 -18 -7 -66 -16 -107 -46 -220 -65 -325 -74 -405 -5 -38 -13 -90 -19 -115 -6 -25 -11 -65 -11 -89 0 -24 -7 -83 -14 -130 -34 -199 -39 -231 -46 -326 -5 -55 -13 -129 -19 -165 -6 -36 -11 -85 -11 -109 0 -44 0 -45 -202 -245 -320 -318 -329 -332 -185 -324 87 5 107 3 107 -14 0 -6 -52 -80 -115 -164 -63 -85 -115 -158 -115 -163 0 -6 -6 -14 -14 -18 -14 -9 -106 -156 -106 -171 0 -5 -9 -17 -20 -27 -40 -36 -44 -12 -31 217 7 117 14 278 17 358 2 80 11 192 19 250 19 138 36 286 45 385 7 76 19 142 41 245 6 25 14 68 18 95 5 28 13 70 19 95 6 25 18 81 27 125 9 44 20 98 26 120 6 22 14 61 19 87 5 26 13 56 19 67 6 11 11 27 11 36 0 9 6 31 14 48 14 35 33 99 46 162 4 22 13 56 20 75 33 91 60 164 85 230 9 25 24 63 32 85 8 22 21 53 29 68 8 16 14 35 14 44 0 8 6 27 13 41 8 15 22 45 32 67 9 22 21 47 26 55 54 94 62 151 25 176 -21 13 -29 14 -52 2 -26 -12 -47 -46 -91 -148 -8 -19 -22 -51 -30 -70 -9 -19 -21 -48 -28 -65 -16 -40 -41 -98 -59 -138 -8 -17 -16 -41 -19 -52 -3 -11 -15 -45 -27 -75 -12 -30 -25 -68 -30 -85 -10 -37 -29 -91 -45 -130 -7 -16 -19 -55 -27 -85 -9 -30 -23 -80 -31 -110 -9 -30 -18 -66 -21 -80 -8 -40 -27 -112 -38 -145 -6 -16 -13 -48 -17 -70 -4 -22 -12 -56 -18 -75 -17 -51 -34 -145 -43 -227 -5 -40 -12 -78 -16 -84 -4 -7 -10 -42 -14 -78 -4 -36 -12 -86 -18 -111 -17 -71 -34 -204 -42 -340 -4 -69 -12 -168 -18 -220 -37 -322 -60 -819 -43 -940 5 -36 17 -90 26 -120 10 -30 23 -75 31 -100 22 -75 40 -120 52 -132 20 -20 14 -48 -18 -88 -16 -21 -30 -42 -30 -48 0 -5 -6 -14 -13 -20 -18 -15 -73 -130 -87 -182 -25 -91 -24 -117 2 -130 25 -14 54 -44 69 -75 5 -11 18 -33 28 -50 11 -16 29 -47 40 -67 11 -21 33 -57 48 -80 41 -63 51 -81 62 -103 18 -41 61 -57 61 -24 0 8 35 64 50 79 3 3 13 21 24 40 49 92 82 150 116 200 l37 55 64 0 c63 0 64 0 67 -28 2 -16 -3 -36 -11 -45 -8 -10 -17 -24 -21 -32 -3 -8 -15 -28 -25 -45 -11 -16 -30 -50 -42 -75 -12 -25 -34 -61 -49 -80 -14 -19 -31 -46 -38 -60 -6 -14 -25 -47 -42 -75 -16 -27 -33 -57 -36 -65 -4 -8 -13 -22 -20 -30 -10 -12 -14 -61 -16 -175 l-3 -160 -85 0 -85 0 -5 155 -5 155 -35 59 c-19 32 -43 70 -52 85 -9 14 -26 45 -37 69 -11 24 -33 62 -49 85 -15 23 -31 49 -35 57 -4 8 -16 29 -27 45 -10 17 -29 49 -41 73 -22 41 -22 43 -6 77 9 20 17 52 17 73 0 20 7 68 15 107 8 38 15 99 15 135 0 48 5 73 20 95 18 27 19 41 14 125 -7 97 -18 140 -28 110 -24 -72 -36 -113 -36 -126 0 -9 -8 -29 -17 -45 -14 -24 -15 -32 -4 -53 10 -17 11 -39 6 -68 -4 -24 -10 -87 -14 -141 -6 -104 -22 -131 -32 -57 -13 97 -70 263 -111 321 -8 12 -5 25 15 60 14 24 38 67 52 94 14 28 34 64 45 80 57 91 65 117 63 210 -1 59 -7 100 -17 120 -9 17 -16 41 -16 55 0 15 -5 31 -11 37 -6 6 -15 29 -19 50 -5 21 -18 63 -30 93 -12 30 -25 69 -29 85 -4 17 -13 40 -19 52 -7 12 -12 32 -12 45 0 13 -7 32 -15 42 -8 11 -15 30 -15 43 0 13 -7 35 -16 48 -10 15 -14 34 -10 49 6 23 11 25 79 28 65 3 72 5 75 25 3 21 -26 88 -70 163 -11 19 -56 94 -99 167 l-80 132 11 63 c6 35 15 92 20 128 5 36 13 79 18 95 14 41 32 111 41 160 4 23 11 47 16 55 5 8 12 32 16 55 13 81 71 261 105 328 8 16 14 33 14 39 0 11 23 66 46 111 8 16 14 35 14 44 0 8 6 27 14 41 8 15 32 63 54 107 79 160 183 361 202 390 11 17 23 37 27 45 3 8 19 31 35 51 15 20 28 40 28 43 0 3 20 35 45 72 25 36 45 68 45 71 0 3 14 22 30 43 17 21 30 43 30 49 0 6 4 11 8 11 4 0 15 12 24 28 9 15 25 36 35 47 10 11 60 74 110 140 51 66 111 140 133 165 23 25 59 68 80 95 39 52 55 70 152 174 36 38 55 67 52 76 -5 13 -154 15 -1208 14 -1350 0 -1781 -8 -1836 -32 -19 -8 -55 -23 -80 -32 -25 -9 -52 -21 -60 -26 -8 -5 -22 -12 -30 -16 -37 -16 -169 -125 -209 -172 -53 -62 -111 -148 -111 -166 0 -7 -7 -18 -15 -25 -8 -7 -15 -21 -15 -32 0 -11 -6 -32 -14 -46 -43 -85 -41 47 -44 -2735 -2 -2329 0 -2642 13 -2673 8 -20 15 -45 15 -54 0 -10 6 -31 14 -47 8 -15 23 -46 33 -68 38 -83 167 -229 228 -257 11 -5 47 -24 80 -43 72 -41 66 -39 137 -60 31 -9 73 -15 93 -13 l38 3 1 101 c2 93 4 106 29 143 l27 41 460 0 c400 0 464 -2 484 -16 28 -17 45 -76 50 -169 2 -33 4 -66 5 -73 1 -18 2950 -17 2974 1 13 10 16 38 18 151 l3 138 -38 23 c-49 30 -183 161 -204 200 -18 34 -33 72 -63 160 -31 90 -18 229 30 323 5 9 17 34 27 55 30 61 179 207 212 207 6 0 13 8 16 18 7 24 18 5109 11 5142 -9 42 -41 50 -203 50 -171 1 -210 8 -255 46 -55 48 -67 86 -67 210 0 60 5 127 11 149 21 77 23 115 5 115 -10 0 -16 -9 -16 -24z m-2090 -5397 c62 -12 144 -49 184 -84 32 -27 76 -91 76 -109 0 -8 7 -30 15 -49 8 -20 15 -51 15 -69 0 -91 -92 -228 -175 -261 -76 -31 -120 -37 -251 -37 -110 0 -144 -3 -153 -14 -8 -9 -11 -50 -10 -116 1 -77 -2 -104 -12 -111 -18 -11 -146 -12 -153 0 -3 4 -7 193 -8 418 -3 449 -4 439 55 445 69 7 365 -2 417 -13z" style="stroke: url('#gradient-0'); fill: rgb(10, 73, 130);"/>
    <path d="M6280 4881 c-5 -11 -10 -80 -10 -154 0 -108 3 -137 15 -147 11 -9 49 -11 143 -8 103 4 133 8 157 24 48 31 64 52 77 98 15 57 -2 112 -46 154 -45 42 -85 52 -212 52 -102 0 -114 -2 -124 -19z" style="stroke: url('#gradient-1'); fill: rgb(10, 73, 130);"/>
    <path d="M5304 3455 c-3 -6 -3 -177 -2 -380 l3 -370 38 1 c22 1 51 11 67 23 16 11 36 21 43 21 8 0 20 7 27 15 7 8 19 15 27 15 8 0 42 20 74 45 33 25 61 45 64 45 2 0 23 -13 47 -29 55 -37 249 -130 287 -137 18 -4 32 -1 37 7 13 21 8 729 -6 743 -15 15 -701 16 -706 1z" style="stroke: url('#gradient-2'); fill: rgb(10, 73, 130);"/>
  </g>
</svg>