<svg width="282" height="95" viewBox="0 0 282 95" fill="none" xmlns="http://www.w3.org/2000/svg">
<path d="M19.512 5.592C24.568 5.592 28.888 6.456 32.472 8.184C36.056 9.848 38.808 12.28 40.728 15.48C42.712 18.68 43.704 22.552 43.704 27.096C43.704 29.848 43.288 32.568 42.456 35.256C41.624 37.88 40.28 40.28 38.424 42.456C36.632 44.568 34.264 46.264 31.32 47.544C28.376 48.824 24.792 49.464 20.568 49.464H10.296V75H0.984V5.592H19.512ZM20.472 40.536C23.224 40.536 25.496 40.088 27.288 39.192C29.08 38.296 30.488 37.176 31.512 35.832C32.536 34.424 33.272 32.952 33.72 31.416C34.168 29.88 34.392 28.504 34.392 27.288C34.392 25.88 34.168 24.44 33.72 22.968C33.272 21.432 32.504 20.056 31.416 18.84C30.392 17.56 29.016 16.536 27.288 15.768C25.624 14.936 23.544 14.52 21.048 14.52H10.296V40.536H20.472ZM59.2298 94.104L85.4378 35.256H93.6938L68.0618 94.104H59.2298ZM69.0218 75.288L49.9178 35.256H59.9978L76.0298 70.776L69.0218 75.288ZM123.371 5.592C130.347 5.592 135.819 7.032 139.787 9.912C143.819 12.728 145.835 17.144 145.835 23.16C145.835 26.808 145.003 29.976 143.339 32.664C141.675 35.352 139.339 37.464 136.331 39C133.387 40.536 129.899 41.4 125.867 41.592L124.523 36.792C129.195 36.92 133.387 37.752 137.099 39.288C140.811 40.824 143.755 42.968 145.931 45.72C148.107 48.472 149.195 51.736 149.195 55.512C149.195 58.968 148.555 61.944 147.275 64.44C145.995 66.872 144.267 68.888 142.091 70.488C139.915 72.024 137.451 73.176 134.699 73.944C131.947 74.648 129.099 75 126.155 75H105.515V5.592H123.371ZM125.291 36.024C129.131 36.024 131.915 34.968 133.643 32.856C135.371 30.68 136.235 28.056 136.235 24.984C136.235 21.336 135.115 18.68 132.875 17.016C130.635 15.352 127.627 14.52 123.851 14.52H114.827V36.024H125.291ZM125.675 66.36C128.235 66.36 130.571 65.976 132.683 65.208C134.859 64.44 136.555 63.256 137.771 61.656C139.051 60.056 139.691 58.04 139.691 55.608C139.691 52.92 138.955 50.808 137.483 49.272C136.075 47.736 134.251 46.648 132.011 46.008C129.771 45.304 127.467 44.952 125.099 44.952H114.827V66.36H125.675ZM162.651 0.695995H171.579V75H162.651V0.695995ZM183.57 54.744C183.57 50.776 184.498 47.192 186.354 43.992C188.274 40.792 190.898 38.264 194.226 36.408C197.554 34.552 201.33 33.624 205.554 33.624C209.906 33.624 213.714 34.552 216.978 36.408C220.242 38.264 222.77 40.792 224.562 43.992C226.354 47.192 227.25 50.776 227.25 54.744C227.25 58.712 226.354 62.328 224.562 65.592C222.77 68.792 220.21 71.32 216.882 73.176C213.618 75.032 209.81 75.96 205.458 75.96C201.234 75.96 197.458 75.096 194.13 73.368C190.866 71.576 188.274 69.112 186.354 65.976C184.498 62.776 183.57 59.032 183.57 54.744ZM192.498 54.84C192.498 57.4 193.074 59.736 194.226 61.848C195.378 63.896 196.914 65.528 198.834 66.744C200.818 67.96 202.994 68.568 205.362 68.568C207.858 68.568 210.066 67.96 211.986 66.744C213.97 65.528 215.506 63.896 216.594 61.848C217.682 59.736 218.226 57.4 218.226 54.84C218.226 52.28 217.682 49.976 216.594 47.928C215.506 45.816 213.97 44.152 211.986 42.936C210.066 41.656 207.858 41.016 205.362 41.016C202.93 41.016 200.722 41.656 198.738 42.936C196.818 44.216 195.282 45.912 194.13 48.024C193.042 50.072 192.498 52.344 192.498 54.84ZM258.443 94.68C255.499 94.68 252.907 94.328 250.667 93.624C248.427 92.984 246.379 92.056 244.523 90.84C242.731 89.624 241.003 88.248 239.339 86.712L244.523 80.664C246.635 82.648 248.779 84.184 250.955 85.272C253.131 86.36 255.563 86.904 258.251 86.904C261.259 86.904 263.787 86.392 265.835 85.368C267.947 84.408 269.547 83.032 270.635 81.24C271.723 79.512 272.267 77.496 272.267 75.192L272.363 64.44L273.131 66.168C271.979 68.92 269.899 71.256 266.891 73.176C263.883 75.032 260.235 75.96 255.947 75.96C252.299 75.96 248.939 75.032 245.867 73.176C242.859 71.32 240.427 68.824 238.571 65.688C236.779 62.488 235.883 58.904 235.883 54.936C235.883 50.776 236.843 47.128 238.763 43.992C240.683 40.792 243.211 38.264 246.347 36.408C249.483 34.552 252.907 33.624 256.619 33.624C260.139 33.624 263.339 34.36 266.219 35.832C269.163 37.24 271.307 39.064 272.651 41.304L272.171 42.936L273.131 35.256H281.291V75.288C281.291 78.872 280.363 82.136 278.507 85.08C276.651 88.024 274.027 90.36 270.635 92.088C267.243 93.816 263.179 94.68 258.443 94.68ZM244.811 54.744C244.811 57.304 245.419 59.64 246.635 61.752C247.851 63.864 249.483 65.528 251.531 66.744C253.643 67.96 255.979 68.568 258.539 68.568C260.907 68.568 263.019 68.152 264.875 67.32C266.795 66.424 268.395 65.24 269.675 63.768C270.955 62.232 271.851 60.472 272.363 58.488V50.616C271.787 48.696 270.827 47.032 269.483 45.624C268.139 44.152 266.539 43.032 264.683 42.264C262.827 41.432 260.779 41.016 258.539 41.016C255.979 41.016 253.643 41.592 251.531 42.744C249.483 43.896 247.851 45.528 246.635 47.64C245.419 49.688 244.811 52.056 244.811 54.744Z" fill="#006996"/>
</svg>
